<?xml version="1.0" standalone="no"?>
<!DOCTYPE svg PUBLIC "-//W3C//DTD SVG 20010904//EN"
 "http://www.w3.org/TR/2001/REC-SVG-20010904/DTD/svg10.dtd">
<svg version="1.0" xmlns="http://www.w3.org/2000/svg"
 width="2237.000000pt" height="529.000000pt" viewBox="0 0 2237.000000 529.000000"
 preserveAspectRatio="xMidYMid meet">

<g transform="translate(0.000000,529.000000) scale(0.100000,-0.100000)"
fill="#000000" stroke="none">
<path d="M22080 5226 c-1338 -278 -2481 -770 -3418 -1470 -79 -59 -146 -105
-150 -102 -3 3 -42 95 -86 203 -45 109 -180 435 -301 725 l-220 528 -562 0
-563 0 11 -27 c5 -15 208 -511 449 -1104 242 -592 440 -1083 440 -1091 0 -8
-12 -25 -26 -39 -51 -47 -238 -263 -357 -413 -515 -648 -950 -1430 -1239
-2230 -22 -61 -46 -128 -54 -149 l-13 -37 496 2 496 3 28 121 c128 559 377
1200 666 1714 78 138 246 410 253 410 11 -1 545 -1320 904 -2233 l10 -27 558
0 c508 0 558 1 558 16 0 17 -537 1373 -998 2519 -134 336 -250 623 -256 638
-11 28 -8 32 99 135 876 849 2050 1504 3475 1939 68 21 3 11 -200 -31z"/>
<path d="M10511 3092 c-161 -595 -301 -1123 -311 -1174 -74 -363 -46 -667 85
-933 170 -346 492 -560 973 -647 112 -20 159 -23 402 -23 301 0 393 10 621 66
689 168 1179 660 1437 1444 22 66 121 426 222 800 100 374 185 683 189 687 4
4 200 9 436 10 483 3 516 0 652 -67 171 -85 239 -245 199 -474 -46 -263 -198
-440 -446 -519 -99 -32 -161 -41 -330 -52 -183 -11 -244 -25 -365 -84 -232
-114 -355 -278 -446 -595 l-47 -163 496 5 c532 5 615 11 850 63 385 86 729
271 961 519 277 297 421 674 421 1105 0 320 -96 562 -299 751 -147 138 -327
230 -563 288 -249 62 -273 63 -1181 68 -586 3 -848 1 -895 -6 -140 -24 -259
-111 -321 -232 -23 -46 -102 -327 -282 -994 -137 -511 -263 -970 -280 -1020
-42 -125 -128 -301 -190 -390 -164 -238 -400 -348 -709 -331 -136 7 -211 25
-303 73 -205 108 -278 348 -208 688 10 50 92 360 182 690 l164 600 -1 155 c0
143 -2 161 -27 235 -38 108 -95 202 -175 287 -144 153 -306 228 -527 244 l-91
7 -293 -1081z"/>
<path d="M4070 4140 c-182 -8 -231 -19 -345 -78 -80 -42 -198 -149 -245 -223
-27 -41 -86 -250 -389 -1371 l-357 -1323 -757 -3 c-418 -1 -757 2 -757 6 0 5
119 454 266 997 160 597 269 1021 275 1073 37 301 -113 618 -375 789 -124 82
-307 139 -416 131 l-43 -3 -460 -1700 c-427 -1578 -460 -1706 -460 -1780 0
-58 6 -95 22 -137 26 -68 103 -157 168 -195 93 -54 43 -53 1608 -53 1579 0
1513 -2 1627 56 69 35 168 135 201 204 19 40 642 2313 733 2674 3 15 8 25 10
24 1 -2 26 -150 54 -328 28 -179 66 -419 85 -535 18 -115 37 -228 40 -250 17
-110 55 -356 99 -635 20 -124 39 -241 42 -260 7 -48 30 -196 48 -310 40 -258
46 -285 81 -358 61 -128 205 -242 343 -271 38 -8 566 -11 1826 -11 1953 0
1869 -3 2023 61 191 80 352 233 433 413 27 59 115 355 108 361 -2 1 -685 5
-1518 9 -833 4 -1515 8 -1516 9 -1 1 108 160 242 352 l244 350 982 5 c1105 6
1021 0 1193 84 159 78 290 210 370 371 29 61 105 306 105 342 0 10 -210 13
-1041 13 l-1040 0 78 113 c43 62 146 210 228 329 l150 217 780 3 c780 4 780 4
855 26 228 70 427 241 520 445 26 59 115 356 108 362 -9 7 -1977 13 -2269 7
l-345 -7 -69 -34 c-154 -76 -356 -315 -807 -956 -179 -253 -465 -660 -638
-905 -172 -245 -338 -480 -368 -523 -30 -43 -58 -75 -62 -70 -3 4 -26 139 -49
298 -157 1083 -224 1507 -247 1585 -46 150 -108 252 -224 368 -40 39 -69 72
-64 72 15 1 -97 70 -156 97 -30 13 -95 36 -145 50 -85 24 -106 26 -355 28
-146 1 -339 -1 -430 -5z"/>
</g>
</svg>
